# xmcd CD database file
#
# Track frame offsets:
#	187
#	15552
#	28852
#	42700
#	55695
#	68270
#	81012
#	92995
#	109207
#	123765
#	137565
#	150027
#	162805
#	176960
#	190612
#
# Disc length: 2733 seconds
#
# Revision: 0
# Processed by: cddbd v1.5PL3 Copyright (c) Steve Scherf et al.
# Submitted via: CDex 1.51
#
DISCID=b40aab0f
DTITLE=Ben Webster - complete on EmArrcy 1
DYEAR=1951
DGENRE=Jazz
TTITLE0=Jay McShann - You Didn't Tell Me
TTITLE1=Jay McShann - Got You Begging - Alternate
TTITLE2=Jay McShann - Got You Begging - Master
TTITLE3=Jay McShann - The Duke And The Brute
TTITLE4=Jay McShann - Reach - Master
TTITLE5=Jay McShann - Reach - Alternate
TTITLE6=Johnny Otis - Oopey Doo
TTITLE7=Johnny Otis - One O'Clock Jump - Alternate 1
TTITLE8=Johnny Otis - One O'Clock Jump - Alternate 2
TTITLE9=Johnny Otis - One O'Clock Jump - Master
TTITLE10=Johnny Otis - One Nighter Blues
TTITLE11=Johnny Otis - Goomp Blues
TTITLE12=Johnny Otis - Stardust - Alternate 1
TTITLE13=Johnny Otis - Stardust - Alternate 2
TTITLE14=Johnny Otis - Stardust - Master
EXTD=YEAR: 1951
EXTT0=
EXTT1=
EXTT2=
EXTT3=
EXTT4=
EXTT5=
EXTT6=
EXTT7=
EXTT8=
EXTT9=
EXTT10=
EXTT11=
EXTT12=
EXTT13=
EXTT14=
PLAYORDER=
